<svg width="59" height="58" viewBox="0 0 59 58" fill="none" xmlns="http://www.w3.org/2000/svg">
    <g clip-path="url(#clip0_112_1065)">
        <path d="M32.6735 23.1975L28.5291 37.3247C28.358 37.8419 28.2426 38.3754 28.1848 38.9163C28.1858 38.9943 28.2027 39.0714 28.2344 39.143C28.2662 39.2145 28.3122 39.2791 28.3697 39.333C28.417 39.3891 28.4758 39.4349 28.5422 39.4673C28.6087 39.4997 28.6813 39.5179 28.7554 39.521C29.0155 39.5036 29.2598 39.3919 29.4408 39.2076C30.0466 38.7147 30.7745 37.827 31.6246 36.5445L32.3132 36.9424C30.2772 40.4264 28.1136 42.1684 25.8225 42.1684C25.0542 42.2061 24.3018 41.9449 23.728 41.4415C23.474 41.2067 23.2733 40.9217 23.1393 40.6053C23.0052 40.2889 22.9408 39.9482 22.9501 39.6055C22.9743 38.9661 23.0902 38.3333 23.2944 37.7257L26.1062 28.2261C26.3304 27.5566 26.4665 26.8617 26.5111 26.1583C26.5078 26.0095 26.4716 25.8632 26.405 25.7295C26.3384 25.5959 26.243 25.4781 26.1253 25.3844C25.8302 25.1463 25.4544 25.0266 25.0733 25.0492C24.8725 25.0492 24.6302 25.0492 24.3464 25.068L24.6079 24.2721L31.462 23.1787L32.6735 23.1975ZM31.4206 14.0582C31.8134 14.0498 32.2037 14.1214 32.567 14.2686C32.9302 14.4158 33.2585 14.6354 33.531 14.9136C33.9429 15.3215 34.2226 15.8402 34.335 16.4042C34.4474 16.9682 34.3873 17.5522 34.1625 18.0827C33.9376 18.6132 33.558 19.0664 33.0715 19.3853C32.585 19.7041 32.0133 19.8742 31.4285 19.8742C30.8438 19.8742 30.2721 19.7041 29.7856 19.3853C29.2991 19.0664 28.9195 18.6132 28.6946 18.0827C28.4698 17.5522 28.4097 16.9682 28.5221 16.4042C28.6345 15.8402 28.9142 15.3215 29.3261 14.9136C29.5965 14.6369 29.9221 14.4182 30.2825 14.271C30.6429 14.1238 31.0303 14.0514 31.4206 14.0582Z" fill="white"/>
        <path d="M29.5016 58C23.7405 58.0142 18.1038 56.354 13.3002 53.2283L0.956364 56.6747L4.51096 44.3961C1.03951 38.9504 -0.492323 32.5255 0.156226 26.1311C0.804775 19.7367 3.59694 13.7353 8.09386 9.07029C12.5908 4.40525 18.5375 1.341 24.9994 0.359152C31.4613 -0.622698 38.0719 0.533517 43.7924 3.64608C49.5128 6.75864 54.0187 11.6511 56.6019 17.5544C59.1851 23.4578 59.6991 30.0374 58.063 36.2591C56.427 42.4808 52.7338 47.9919 47.5638 51.9261C42.3938 55.8603 36.0402 57.9947 29.5016 57.9937V58ZM14.145 48.2874L15.0504 48.914C20.1197 52.4719 26.3608 54.0353 32.5445 53.2961C38.7282 52.557 44.406 49.5689 48.4597 44.9205C52.5134 40.2721 54.6489 34.3003 54.4457 28.1816C54.2424 22.0629 51.7152 16.2407 47.3617 11.862C43.0082 7.48328 37.1442 4.86546 30.9246 4.52421C24.7051 4.18295 18.5809 6.14299 13.7586 10.0182C8.9362 13.8935 5.76522 19.403 4.87023 25.4615C3.97525 31.52 5.42115 37.6882 8.92313 42.7512L9.53204 43.6285L7.64794 50.1014L14.145 48.2874Z" fill="white"/>
    </g>
    <defs>
        <clipPath id="clip0_112_1065">
            <rect width="59" height="58" fill="white"/>
        </clipPath>
    </defs>
</svg>
