<svg width="31" height="30" viewBox="0 0 31 30" fill="none" xmlns="http://www.w3.org/2000/svg">
    <path fill-rule="evenodd" clip-rule="evenodd" d="M15.6874 0C7.39847 0 0.678955 6.71573 0.678955 15C0.678955 23.2843 7.39847 30 15.6874 30C23.9763 30 30.6959 23.2843 30.6959 15C30.6959 6.71573 23.9763 0 15.6874 0ZM12.3876 7.04833C13.2414 7.0095 13.5142 7 15.6882 7H15.6857C17.8602 7 18.1321 7.0095 18.9859 7.04833C19.838 7.08733 20.42 7.22217 20.9303 7.42C21.4573 7.62417 21.9026 7.89751 22.3478 8.34251C22.7931 8.78719 23.0666 9.23352 23.2717 9.7597C23.4685 10.2684 23.6035 10.8497 23.6436 11.7014C23.6819 12.5547 23.6919 12.8274 23.6919 15.0001C23.6919 17.1728 23.6819 17.4448 23.6436 18.2981C23.6035 19.1495 23.4685 19.731 23.2717 20.2398C23.0666 20.7658 22.7931 21.2121 22.3478 21.6568C21.9031 22.1018 21.4571 22.3758 20.9308 22.5802C20.4215 22.778 19.8392 22.9128 18.9871 22.9518C18.1332 22.9907 17.8612 23.0002 15.6872 23.0002C13.5134 23.0002 13.2408 22.9907 12.3869 22.9518C11.5349 22.9128 10.9531 22.778 10.4438 22.5802C9.91768 22.3758 9.47109 22.1018 9.02634 21.6568C8.58125 21.2121 8.30776 20.7658 8.10314 20.2396C7.90536 19.731 7.77045 19.1496 7.73126 18.298C7.69257 17.4446 7.6829 17.1728 7.6829 15.0001C7.6829 12.8274 7.69291 12.5546 7.73109 11.7012C7.76945 10.8499 7.90453 10.2684 8.10297 9.75953C8.30809 9.23352 8.58158 8.78719 9.02684 8.34251C9.47176 7.89768 9.91835 7.62434 10.4448 7.42C10.9538 7.22217 11.5354 7.08733 12.3876 7.04833Z" fill="#0069B4"/>
    <path fill-rule="evenodd" clip-rule="evenodd" d="M14.97 8.4417C15.1094 8.44148 15.2594 8.44155 15.4213 8.44162L15.6881 8.4417C17.8253 8.4417 18.0786 8.44936 18.9226 8.4877C19.703 8.52336 20.1266 8.6537 20.4088 8.7632C20.7823 8.9082 21.0486 9.08154 21.3286 9.36154C21.6088 9.64154 21.7822 9.90821 21.9277 10.2815C22.0372 10.5632 22.1678 10.9866 22.2033 11.7666C22.2417 12.6099 22.25 12.8632 22.25 14.9983C22.25 17.1333 22.2417 17.3866 22.2033 18.23C22.1676 19.01 22.0372 19.4333 21.9277 19.715C21.7826 20.0883 21.6088 20.3542 21.3286 20.634C21.0485 20.914 20.7825 21.0873 20.4088 21.2323C20.127 21.3423 19.703 21.4723 18.9226 21.508C18.0788 21.5463 17.8253 21.5547 15.6881 21.5547C13.5507 21.5547 13.2974 21.5463 12.4536 21.508C11.6731 21.472 11.2495 21.3417 10.9672 21.2322C10.5937 21.0872 10.3268 20.9138 10.0467 20.6338C9.76651 20.3538 9.59308 20.0878 9.44766 19.7143C9.3381 19.4326 9.20752 19.0093 9.172 18.2293C9.13365 17.386 9.12598 17.1326 9.12598 14.9963C9.12598 12.8599 9.13365 12.6079 9.172 11.7646C9.20769 10.9846 9.3381 10.5612 9.44766 10.2792C9.59274 9.90588 9.76651 9.63921 10.0467 9.35921C10.3268 9.0792 10.5937 8.90587 10.9672 8.76053C11.2494 8.65053 11.6731 8.52053 12.4536 8.4847C13.192 8.45136 13.4781 8.44136 14.97 8.4397V8.4417ZM19.9609 9.77004C19.4306 9.77004 19.0003 10.1995 19.0003 10.7297C19.0003 11.2597 19.4306 11.6897 19.9609 11.6897C20.4912 11.6897 20.9214 11.2597 20.9214 10.7297C20.9214 10.1997 20.4912 9.76971 19.9609 9.76971V9.77004ZM11.5774 15.0001C11.5774 12.7313 13.4178 10.8918 15.6879 10.8917C17.958 10.8917 19.7981 12.7312 19.7981 15.0001C19.7981 17.269 17.9582 19.1076 15.6881 19.1076C13.4179 19.1076 11.5774 17.269 11.5774 15.0001Z" fill="#0069B4"/>
    <path d="M15.6882 12.3334C17.1617 12.3334 18.3564 13.5272 18.3564 15.0001C18.3564 16.4728 17.1617 17.6668 15.6882 17.6668C14.2145 17.6668 13.02 16.4728 13.02 15.0001C13.02 13.5272 14.2145 12.3334 15.6882 12.3334V12.3334Z" fill="#0069B4"/>
</svg>
