<svg width="31" height="30" viewBox="0 0 31 30" fill="none" xmlns="http://www.w3.org/2000/svg">
    <path fill-rule="evenodd" clip-rule="evenodd" d="M15.8395 0C7.55057 0 0.831055 6.71573 0.831055 15C0.831055 23.2843 7.55057 30 15.8395 30C24.1284 30 30.848 23.2843 30.848 15C30.848 6.71573 24.1284 0 15.8395 0ZM8.03612 12.4237H11.4374V22.6372H8.03612V12.4237ZM11.6614 9.26419C11.6393 8.26275 10.9228 7.5 9.75923 7.5C8.59568 7.5 7.835 8.26275 7.835 9.26419C7.835 10.2449 8.5732 11.0296 9.71508 11.0296H9.73681C10.9228 11.0296 11.6614 10.2449 11.6614 9.26419ZM19.7874 12.1838C22.0256 12.1838 23.7036 13.6439 23.7036 16.7811L23.7034 22.6372H20.3023V17.173C20.3023 15.8005 19.8101 14.8639 18.5789 14.8639C17.6392 14.8639 17.0795 15.4953 16.8337 16.1051C16.7438 16.3236 16.7217 16.6281 16.7217 16.9334V22.6375H13.32C13.32 22.6375 13.3649 13.3823 13.32 12.4239H16.7217V13.8706C17.1731 13.1752 17.9816 12.1838 19.7874 12.1838Z" fill="#0069B4"/>
</svg>
