<svg width="24" height="24" viewBox="0 0 24 24" fill="none" xmlns="http://www.w3.org/2000/svg">
    <path d="M11.4811 19.9661L10.774 20.6732H10.774L11.4811 19.9661ZM4.03411 12.5191L3.327 13.2263H3.327L4.03411 12.5191ZM12.5194 4.03386L13.2265 3.32676V3.32676L12.5194 4.03386ZM19.9664 11.4808L20.6735 10.7737V10.7737L19.9664 11.4808ZM19.9664 12.8951L19.2593 12.188L19.9664 12.8951ZM12.8953 19.9661L13.6024 20.6732L12.8953 19.9661ZM3.74532 11.7215L4.74122 11.812H4.74122L3.74532 11.7215ZM4.33458 5.23969L5.33047 5.33023L4.33458 5.23969ZM5.23993 4.33433L5.33047 5.33023H5.33047L5.23993 4.33433ZM11.7217 3.74508L11.8123 4.74097L11.7217 3.74508ZM12.1882 19.259L4.74122 11.812L3.327 13.2263L10.774 20.6732L12.1882 19.259ZM11.8123 4.74097L19.2593 12.188L20.6735 10.7737L13.2265 3.32676L11.8123 4.74097ZM19.2593 12.188L12.1882 19.259L13.6024 20.6732L20.6735 13.6022L19.2593 12.188ZM4.74122 11.812L5.33047 5.33023L3.33868 5.14916L2.74943 11.631L4.74122 11.812ZM5.33047 5.33023L11.8123 4.74097L11.6312 2.74919L5.1494 3.33844L5.33047 5.33023ZM5.33047 5.33023L5.33047 5.33023L5.1494 3.33844C4.1879 3.42585 3.42609 4.18765 3.33868 5.14916L5.33047 5.33023ZM19.2593 12.188L19.2593 12.188L20.6735 13.6022C21.4545 12.8211 21.4545 11.5548 20.6735 10.7737L19.2593 12.188ZM13.2265 3.32676C12.8068 2.90705 12.2223 2.69545 11.6312 2.74919L11.8123 4.74097H11.8123L13.2265 3.32676ZM4.74122 11.812H4.74122L2.74943 11.631C2.69569 12.2221 2.90729 12.8065 3.327 13.2263L4.74122 11.812ZM10.774 20.6732C11.555 21.4543 12.8214 21.4543 13.6024 20.6732L12.1882 19.259L12.1882 19.259L10.774 20.6732Z" fill="#F39200"/>
    <path d="M8.29875 8.29875C8.68928 7.90823 9.32244 7.90823 9.71297 8.29875C10.1035 8.68928 10.1035 9.32244 9.71297 9.71297C9.32244 10.1035 8.68928 10.1035 8.29875 9.71297C7.90823 9.32244 7.90823 8.68928 8.29875 8.29875Z" stroke="#F39200" stroke-width="2" stroke-linecap="round" stroke-linejoin="round"/>
</svg>
