<svg width="31" height="30" viewBox="0 0 31 30" fill="none" xmlns="http://www.w3.org/2000/svg">
    <path fill-rule="evenodd" clip-rule="evenodd" d="M15.5353 0C7.24637 0 0.526855 6.71573 0.526855 15C0.526855 23.2843 7.24637 30 15.5353 30C23.8242 30 30.5438 23.2843 30.5438 15C30.5438 6.71573 23.8242 0 15.5353 0ZM15.1173 12.7112L15.0858 12.1922C14.9913 10.8469 15.8207 9.6182 17.1329 9.14154C17.6158 8.97206 18.4347 8.95087 18.9701 9.09917C19.1801 9.16273 19.579 9.37458 19.8624 9.56524L20.3769 9.91479L20.9437 9.73472C21.2587 9.63939 21.6786 9.4805 21.8676 9.37458C22.046 9.27924 22.2035 9.22628 22.2035 9.25806C22.2035 9.43813 21.8151 10.0525 21.4896 10.3915C21.0487 10.8681 21.1747 10.9105 22.067 10.5927C22.6024 10.4126 22.6129 10.4126 22.508 10.6139C22.445 10.7198 22.1195 11.0906 21.7731 11.4295C21.1852 12.0121 21.1537 12.0757 21.1537 12.5629C21.1537 13.315 20.7968 14.8827 20.4398 15.7407C19.7785 17.3507 18.3612 19.0138 16.944 19.8506C14.9493 21.0264 12.2933 21.3229 10.0572 20.6344C9.31185 20.4014 8.03108 19.8082 8.03108 19.7023C8.03108 19.6705 8.41951 19.6281 8.89193 19.6175C9.87875 19.5964 10.8656 19.321 11.7054 18.8337L12.2723 18.4947L11.6214 18.2723C10.6976 17.9545 9.86825 17.2236 9.65829 16.5351C9.5953 16.3127 9.61629 16.3021 10.2042 16.3021L10.8131 16.2915L10.2987 16.0479C9.68978 15.7407 9.13338 15.2217 8.86043 14.692C8.66097 14.3107 8.40901 13.3468 8.4825 13.2726C8.5035 13.2408 8.72396 13.3044 8.97591 13.3891C9.70028 13.654 9.79476 13.5904 9.37484 13.1455C8.58748 12.3405 8.34602 11.1435 8.72396 10.0101L8.90242 9.50169L9.5953 10.1902C11.0125 11.5778 12.6817 12.404 14.5924 12.6477L15.1173 12.7112Z" fill="#0069B4"/>
</svg>
