<svg width="31" height="30" viewBox="0 0 31 30" fill="none" xmlns="http://www.w3.org/2000/svg">
    <path fill-rule="evenodd" clip-rule="evenodd" d="M15.9916 0C7.70267 0 0.983154 6.71573 0.983154 15C0.983154 23.2843 7.70267 30 15.9916 30C24.2805 30 31.0001 23.2843 31.0001 15C31.0001 6.71573 24.2805 0 15.9916 0ZM22.2461 9.84333C22.935 10.0322 23.4775 10.5889 23.6616 11.2958C23.9961 12.5769 23.9961 15.25 23.9961 15.25C23.9961 15.25 23.9961 17.923 23.6616 19.2042C23.4775 19.9111 22.935 20.4678 22.2461 20.6568C20.9978 21 15.9916 21 15.9916 21C15.9916 21 10.9854 21 9.73699 20.6568C9.04815 20.4678 8.50566 19.9111 8.32156 19.2042C7.9871 17.923 7.9871 15.25 7.9871 15.25C7.9871 15.25 7.9871 12.5769 8.32156 11.2958C8.50566 10.5889 9.04815 10.0322 9.73699 9.84333C10.9854 9.5 15.9916 9.5 15.9916 9.5C15.9916 9.5 20.9978 9.5 22.2461 9.84333Z" fill="#0069B4"/>
    <path d="M14.4907 18V13L18.493 15.5001L14.4907 18Z" fill="#0069B4"/>
</svg>
