<svg width="266" height="108" viewBox="0 0 266 108" fill="none" xmlns="http://www.w3.org/2000/svg">
    <path d="M92.9795 40.9936C92.983 18.3516 111.271 -0.00117326 133.828 5.62553e-08C156.385 0.00117337 174.671 18.3559 174.672 40.9979C174.674 63.6399 156.39 81.9965 133.832 82C122.996 82.0034 112.603 77.6842 104.941 69.9932C97.2792 62.3023 92.9761 51.8702 92.9795 40.9936Z" fill="white"/>
    <path d="M169.685 37.0772C169.526 37.4166 169.329 37.7367 169.099 38.0314L166.586 41.5256C159.237 51.8407 153.803 56.9982 150.282 56.9982C148.545 57.0415 146.883 56.2792 145.772 54.9288C144.554 53.432 143.925 51.5336 144.005 49.5972C144.005 47.3923 144.758 45.007 146.238 42.4411C146.512 41.9705 147.928 39.8623 150.512 36.1102C153.79 31.3825 155.429 28.2858 155.429 26.8202C155.429 25.1891 154.638 24.3897 153.031 24.3897C147.881 24.3897 139.039 35.0809 126.503 56.4632C125.438 56.2884 124.36 56.2128 123.282 56.2375C121.913 56.222 120.545 56.2974 119.186 56.4632L127.479 43.1503C132.9 34.3867 135.611 29.0143 135.611 27.0329C135.611 25.2665 134.89 24.3704 133.449 24.3704C131.323 24.3704 127.81 27.4885 122.912 33.7249C117.448 40.8722 112.589 48.472 108.388 56.4438C107.243 56.2738 106.087 56.1983 104.93 56.2182C103.6 56.2049 102.271 56.2803 100.95 56.4438L109.344 43.1438C115.128 33.9978 118.015 28.3374 118.006 26.1626C118.006 24.9828 117.566 24.3833 116.667 24.3833C114.753 24.3833 110.784 28.6146 104.758 37.0772C104.363 37.6317 104.05 37.9089 103.821 37.9089C103.68 37.8616 103.59 37.7228 103.604 37.5737C103.604 37.2212 105.402 34.7585 109 30.1855C112.521 25.7457 115.238 23.5237 117.152 23.5194C118.456 23.546 119.664 24.2215 120.379 25.3245C121.296 26.5608 121.772 28.0738 121.732 29.6182C121.732 31.9004 120.579 35.0766 118.274 39.1467C125.304 28.7285 130.536 23.5194 133.972 23.5194C135.557 23.4909 137.058 24.2376 138.003 25.5244C139.09 26.9678 139.651 28.7463 139.591 30.5594C139.591 32.8029 138.558 35.6654 136.491 39.1467C143.908 28.7156 149.459 23.5 153.146 23.5C154.831 23.4945 156.415 24.3106 157.4 25.692C158.567 27.2098 159.175 29.0897 159.123 31.0107C159.123 33.4605 158.168 36.3208 156.259 39.5916C156.212 39.6302 154.53 42.1574 151.213 47.1731C149.3 50.0098 148.345 52.1802 148.349 53.6845C148.349 55.2963 149.14 56.1021 150.754 56.1021C153.803 56.1021 158.844 51.1251 165.877 41.171L167.695 38.5923L168.754 37.3029C168.952 36.9096 169.137 36.7098 169.335 36.7098C169.434 36.6928 169.536 36.7266 169.606 36.8C169.676 36.8735 169.706 36.9772 169.685 37.0772Z" fill="#B11CAB"/>
    <path d="M0.360491 105.994V105.468H1.75223V94.5378H0.328125V94H10.6852L10.7888 97.5331H10.2256C9.47474 95.1819 8.62675 94.5378 6.84015 94.5378H4.85936V99.5404C6.67832 99.5404 7.06672 99.0214 7.44863 97.358H8.09595V102.467H7.44863C7.18971 100.735 6.6848 100.166 4.85936 100.166V105.475H6.60712V106L0.360491 105.994Z" fill="white"/>
    <path d="M11.2871 94H17.4329V94.5488H15.869V103.418C15.869 105.096 16.2955 105.97 18.3958 105.97C19.4358 106.045 20.4424 105.59 21.0648 104.764C21.4978 104.311 21.4978 102.895 21.4978 101.395V95.2315C21.4978 94.8678 21.2005 94.5551 20.6642 94.5551H19.824V94.0064H23.7403V94.5551H22.6287C22.2022 94.5551 22.0471 94.8678 22.0471 95.2315V102.78C22.1339 103.689 21.8785 104.598 21.3298 105.332C20.6383 106.092 19.572 106.5 17.4523 106.5C14.402 106.5 12.7476 105.46 12.7476 102.493V94.5488H11.2871V94Z" fill="white"/>
    <path d="M35.1225 106.5H34.702L27.0018 95.6127V105.008C27.0018 105.461 27.2466 105.646 27.7047 105.69H28.7213V106.226H24.7552V105.69H25.6149C26.2425 105.646 26.2425 105.257 26.2425 104.728V95.6828C26.2425 94.784 26.4119 94.5482 25.3262 94.5482H24.7363V94H29.5121L34.5828 101.248V95.0773C34.5828 94.7139 33.8423 94.5482 33.3841 94.5482H32.8884V94H36.6914V94.5482H35.9258C35.4112 94.5482 35.1225 94.7139 35.1225 95.0773V106.5Z" fill="white"/>
    <path d="M40.0489 94.5381H38.6836V94H45.4722C48.6474 94 51.1368 96.7529 51.1368 99.9124C51.1368 103.979 48.2791 105.7 45.8913 105.912C45.2563 105.962 44.672 106 44.0434 106H38.6836V105.474H40.0489V94.5381ZM43.1162 105.474H44.8499C46.4375 105.474 47.1297 104.805 47.4408 103.798C47.5947 103.218 47.6611 102.619 47.6377 102.021V97.7915C47.7002 97.0436 47.5849 96.2917 47.3011 95.5954C46.9391 94.8446 46.3105 94.5381 44.8499 94.5381H43.1162V105.474Z" fill="white"/>
    <path d="M52.1338 106.5V105.965C52.5612 105.965 53.3909 105.965 53.5606 105.416L57.8222 94H58.5262L63.0077 105.965H64.0888V106.5H58.369V105.965H59.7581L58.7839 103.083H55.0754L54.604 104.403C54.4415 104.801 54.3214 105.216 54.2457 105.639C54.2457 106.105 55.616 105.965 55.8674 105.965V106.5H52.1338ZM55.3143 102.529H58.5576L56.9485 98.0668L55.3143 102.529Z" fill="white"/>
    <path d="M74.6207 93.7479H75.2721V97.2116H74.7249C74.015 95.4862 73.0966 94.0268 71.0188 94.0268C69.2797 94.0268 68.6804 94.604 68.6804 99.8645C68.6804 104.567 68.6804 105.91 71.0969 105.91C73.2333 105.91 74.295 104.398 74.8943 102.504H75.5456V106.189H74.8943L74.1778 105.54C73.2974 106.14 72.2613 106.474 71.1946 106.5C67.8923 106.5 65.085 103.614 65.085 99.8969C65.085 97.5618 67.6057 93.5014 71.0188 93.5014C72.1131 93.475 73.1823 93.8306 74.041 94.5068L74.6207 93.7479Z" fill="white"/>
    <path d="M77.04 106V105.474H78.389V94.5381H77.04V94H83.0176V94.5381H81.4704V105.474H83.0176V106H77.04Z" fill="white"/>
    <path d="M96.9617 99.9242C97.0341 102.248 95.8641 104.428 93.9087 105.612C91.9534 106.796 89.5232 106.796 87.5679 105.612C85.6126 104.428 84.4425 102.248 84.5149 99.9242C84.5149 95.7016 88.3749 93.5645 90.7351 93.5645C93.0954 93.5645 96.9617 95.7016 96.9617 99.9242ZM88.1028 101.375C88.1028 105.261 88.2357 105.986 90.7288 105.986C93.222 105.986 93.3612 105.235 93.3612 101.375V98.2533C93.3612 94.8662 92.7284 94.1214 90.7288 94.1214C88.7292 94.1214 88.1028 94.8662 88.1028 98.2533V101.375ZM90.3934 91.9454H89.2734L91.0262 89.8795C91.5261 89.3095 91.9944 88.5 92.8233 88.5C93.2597 88.5106 93.6081 88.8757 93.608 89.3225C93.608 89.8276 93.2283 90.0737 92.8676 90.3004L90.3934 91.9454Z" fill="white"/>
    <path d="M108.839 106.5H108.425L100.712 95.6127V105.008C100.712 105.461 100.963 105.646 101.415 105.69H102.444V106.226H98.4778V105.69H99.3438C99.9714 105.646 99.9714 105.257 99.9714 104.728V95.6828C99.9714 94.784 100.141 94.5482 99.0489 94.5482H98.459V94H103.216L108.305 101.248V95.0773C108.305 94.7139 107.571 94.5482 107.113 94.5482H106.611V94H110.414V94.5482H109.655C109.134 94.5482 108.845 94.7139 108.845 95.0773L108.839 106.5Z" fill="white"/>
    <path d="M127.416 93.7479H128.067V97.2116H127.52C126.817 95.4863 125.899 94.0269 123.822 94.0269C122.078 94.0269 121.485 94.6041 121.485 99.8645C121.485 104.567 121.485 105.91 123.894 105.91C126.023 105.91 127.09 104.398 127.695 102.504H128.346V106.189H127.695L126.966 105.54C126.089 106.14 125.056 106.474 123.992 106.5C120.691 106.5 117.886 103.614 117.886 99.897C117.886 97.5619 120.405 93.5015 123.809 93.5015C124.905 93.4741 125.976 93.8298 126.836 94.5068L127.416 93.7479Z" fill="white"/>
    <path d="M129.343 106V105.474H130.838V94.5381H129.5V94H139.766L139.877 97.2346H139.224C138.44 95.2013 137.617 94.5381 135.736 94.5381H133.973V99.5433C135.808 99.5433 136.207 99.0302 136.586 97.366H137.239V102.471H136.586C136.324 100.751 135.815 100.181 133.973 100.181V105.468H135.808C138.715 105.468 139.25 104.148 139.727 102.058H140.302L140.197 105.994L129.343 106Z" fill="white"/>
    <path d="M141.834 106.238V105.702H143.263V94.5488H141.796V94H149.099C150.937 94 152.872 94.8231 152.872 96.9671C152.872 98.9834 150.309 99.5704 148.766 99.7363V99.7682C151.328 100.253 152.391 101.255 152.391 103.016C152.391 104.541 152.462 105.192 152.724 105.473C152.853 105.594 153.224 105.747 154.14 105.549L154.249 105.932C153.58 106.27 152.846 106.464 152.097 106.5C149.855 106.5 149.099 105.492 149.041 102.672C149.003 100.483 148.618 100.017 147.119 100.017H146.325V105.702H147.85V106.238H141.834ZM146.357 99.3982H147.132C148.99 99.3982 149.521 99.0919 149.521 97.8157V96.0355C149.521 95.1485 149.816 94.5488 147.683 94.5488H146.357V99.3982Z" fill="white"/>
    <path d="M167.657 105.474H169.175V106H163.087V105.474H164.712V94.6194H164.674L161.104 106H160.466L156.973 94.5944H156.928V104.386C156.928 105.575 157.566 105.474 158.65 105.474V106H154.748V105.474C155.755 105.474 156.386 105.575 156.386 104.386V94.5381H154.748V94H159.893L162.028 101.245L164.234 94H169.194V94.5381H167.676L167.657 105.474Z" fill="white"/>
    <path d="M170.189 106V105.474H171.555V94.5381H170.189V94H176.167V94.5381H174.63V105.474H176.167V106H170.189Z" fill="white"/>
    <path d="M195.564 105.474H197.082V106H190.985V105.474H192.617V94.6194H192.579L189.008 106H188.37L184.856 94.5944H184.817V104.386C184.817 105.575 185.455 105.474 186.546 105.474V106H182.643V105.474C183.644 105.474 184.275 105.575 184.275 104.386V94.5381H182.643V94H187.783L189.92 101.245L192.126 94H197.088V94.5381H195.57L195.564 105.474Z" fill="white"/>
    <path d="M198.091 94H204.234V94.5471H202.677V103.389C202.677 105.062 203.097 105.934 205.19 105.934C206.232 106.003 207.24 105.551 207.871 104.732C208.29 104.28 208.29 102.868 208.29 101.373V95.2277C208.29 94.8651 208 94.5534 207.457 94.5534H206.624V94.0064H210.538V94.5534H209.427C208.988 94.5534 208.846 94.8651 208.846 95.2277V102.753C208.945 103.674 208.684 104.598 208.116 105.336C207.438 106.093 206.359 106.5 204.241 106.5C201.198 106.5 199.551 105.463 199.551 102.505V94.5471H198.085L198.091 94Z" fill="white"/>
    <path d="M217.149 103.682C217.217 104.842 216.78 105.975 215.949 106.798C215.117 107.621 213.969 108.056 212.792 107.994C212.226 108.037 211.667 107.851 211.242 107.48C210.818 107.109 210.565 106.584 210.54 106.025C210.518 105.67 210.651 105.322 210.906 105.069C211.161 104.817 211.514 104.684 211.875 104.704C212.573 104.704 213.139 105.262 213.139 105.95C213.148 106.404 212.991 106.847 212.697 107.196C212.857 107.343 213.074 107.413 213.291 107.39C213.924 107.39 214.132 107.29 214.132 103.651V94.5358H212.709V94H218.508V94.5358H217.174L217.149 103.682Z" fill="white"/>
    <path d="M219.504 106V105.474H220.994V94.5381H219.693V94H229.91L230.02 97.2346H229.369C228.582 95.2013 227.762 94.5381 225.894 94.5381H224.137V99.5433C225.972 99.5433 226.363 99.0302 226.74 97.366H227.359V102.471H226.74C226.474 100.751 225.979 100.181 224.137 100.181V105.468H225.972C228.855 105.468 229.389 104.148 229.877 102.058H230.463L230.352 105.994L219.504 106Z" fill="white"/>
    <path d="M231.497 106.238V105.702H232.933V94.5488H231.459V94H238.766C240.605 94 242.541 94.8231 242.541 96.9671C242.541 98.9834 239.977 99.5704 238.439 99.7363V99.7682C241.002 100.253 242.06 101.255 242.06 103.016C242.06 104.541 242.137 105.192 242.393 105.473C242.521 105.594 242.9 105.747 243.816 105.549L243.912 105.932C243.246 106.274 242.514 106.468 241.765 106.5C239.522 106.5 238.766 105.492 238.714 102.672C238.676 100.483 238.285 100.017 236.791 100.017H235.997V105.702H237.529V106.238H231.497ZM236.022 99.3982H236.804C238.657 99.3982 239.189 99.0919 239.189 97.8157V96.0355C239.189 95.1485 239.483 94.5488 237.356 94.5488H236.022V99.3982Z" fill="white"/>
    <path d="M244.908 106V105.474H246.409V94.5381H245.071V94H255.326L255.436 97.2346H254.784C253.988 95.2013 253.166 94.5381 251.294 94.5381H249.533V99.5433C251.373 99.5433 251.757 99.0302 252.142 97.366H252.755V102.471H252.142C251.881 100.751 251.373 100.181 249.533 100.181V105.468H251.373C254.275 105.468 254.797 104.148 255.286 102.058H255.867L255.756 105.994L244.908 106Z" fill="white"/>
    <path d="M264.475 93.7737H265.04V97.0768H264.449C264.173 95.5453 262.87 94.0527 261.239 94.0527C260.231 94.0527 258.806 94.6497 258.806 95.8827C258.806 96.9729 259.576 97.2714 260.482 97.4856C261.617 97.7074 262.732 98.0266 263.814 98.4395C264.924 98.9133 265.829 99.9062 265.829 102.067C265.829 104.228 264.545 106.499 261.509 106.499C260.579 106.515 259.673 106.208 258.941 105.63L258.003 106.337H257.361V102.703H258.003C258.504 104.416 259.718 105.948 261.586 105.948C263.634 105.948 264.52 104.65 264.52 103.456C264.52 101.853 262.722 101.723 260.95 101.262C259.178 100.802 257.381 100.042 257.381 97.2325C257.399 96.2204 257.816 95.2576 258.539 94.5572C259.262 93.8568 260.232 93.4767 261.233 93.5011C262.123 93.5421 262.985 93.8246 263.73 94.3188L264.475 93.7737Z" fill="white"/>
</svg>
