<svg width="270" height="39" viewBox="0 0 270 39" fill="none" xmlns="http://www.w3.org/2000/svg">
    <g clip-path="url(#clip0_132_2339)">
        <path d="M36.283 29.8725H26.8057V39H36.283V29.8725Z" fill="#F39200"/>
        <path d="M36.2925 0H26.3301V4.49129H36.2925V0Z" fill="#E30613"/>
        <path d="M41.7993 15.1672L35.5918 18.3183C35.6771 19.0341 35.5341 19.7586 35.1836 20.3869C34.8332 21.0153 34.2934 21.515 33.6425 21.8136C29.2497 24.3037 28.2525 20.1384 28.2525 20.1384L41.0716 13.6188C40.5067 12.2927 39.6256 11.1277 38.5067 10.2273C37.3878 9.32695 36.0656 8.71897 34.6576 8.45739C27.3452 8.18574 22.1799 13.6912 22.1799 13.6912C18.353 17.9833 22.3955 23.4978 22.3955 23.4978C25.2791 28.3966 32.1872 26.0423 32.1872 26.0423C44.099 21.9947 41.7993 15.1672 41.7993 15.1672ZM28.4142 13.4195C31.9177 11.6085 33.382 13.981 33.382 13.981L26.8512 17.3042C25.7013 14.6873 28.4142 13.4195 28.4142 13.4195Z" fill="#8BADDC"/>
        <path d="M7.42913 19.2782C7.5549 21.0258 8.37237 21.7592 9.82766 21.7592C10.9865 21.7592 11.5524 21.2522 11.5524 20.3285C11.5524 19.4049 10.8338 18.7077 7.95914 17.9199C2.10207 16.3262 0.655775 13.9176 0.655775 11.0652C0.628826 6.26609 4.53653 3.88461 9.72884 3.88461C15.1188 3.88461 18.8828 6.26609 19.1073 11.1286H11.804C11.804 9.95148 11.238 8.93732 9.89054 8.93732C8.99221 8.93732 8.4083 9.35385 8.4083 10.0783C8.4083 11.1015 9.16289 11.5089 11.9028 12.2696C17.8137 13.8451 19.6104 15.9187 19.6104 19.5045C19.6104 24.7746 15.1637 26.8029 9.72884 26.8029C3.34176 26.8029 0.224581 23.534 0 19.2782H7.42913Z" fill="#2560AB"/>
        <path d="M60.7091 3.60391V20.8718C60.7091 23.534 60.7091 25.3994 60.7091 26.2324H53.217C53.1165 25.7827 53.0534 25.3254 53.0284 24.8651C52.0492 26.0423 50.9173 26.6761 48.7164 26.6761C44.2248 26.6761 42.8594 22.0128 42.8594 17.9561C42.8594 12.5231 45.3118 8.9011 49.7226 8.9011C51.0431 8.9011 52.3636 9.25425 52.9386 10.042V3.60391H60.7091ZM50.8275 17.4672C50.8275 20.9262 51.1689 21.6596 52.0223 21.6596C53.0284 21.6596 53.1901 20.7541 53.1901 17.3404C53.1901 14.3613 53.1901 13.7184 52.1121 13.7184C51.2677 13.7274 50.8275 14.6782 50.8275 17.4672Z" fill="#2560AB"/>
        <path d="M70.7252 19.1876C70.7252 21.3427 71.2642 22.0762 72.1086 22.0762C72.953 22.0762 73.1506 21.5962 73.3752 20.7451H80.6966C80.3821 22.5561 78.8999 26.6399 71.9379 26.6399C64.7513 26.6399 62.8379 21.9494 62.8379 17.7569C62.8379 13.3109 65.0747 8.90109 72.0637 8.90109C78.8999 8.90109 80.9121 13.4286 80.9121 17.7569V19.1876H70.7252ZM73.0249 15.5656C73.0249 14.1349 72.935 13.2113 71.9199 13.2113C71.0755 13.2113 70.7252 13.8814 70.7252 15.5656H73.0249Z" fill="#2560AB"/>
        <path d="M105.05 17.9833H96.4889V20.6998H106.182L105.337 26.2234H88.7812V4.4913H105.4V10.0511H96.4889V12.4597H105.05V17.9833Z" fill="#2560AB"/>
        <path d="M107.916 26.2324V3.59485H115.731V26.2324H107.916Z" fill="#2560AB"/>
        <path d="M125.711 19.1876C125.711 21.3427 126.241 22.0762 127.094 22.0762C127.948 22.0762 128.136 21.5962 128.352 20.7451H135.655C135.341 22.5561 133.859 26.6399 126.906 26.6399C119.719 26.6399 117.806 21.9494 117.806 17.7569C117.806 13.3109 120.042 8.90109 127.031 8.90109C133.868 8.90109 135.88 13.4286 135.88 17.7569V19.1876H125.711ZM128.011 15.5656C128.011 14.1349 127.912 13.2113 126.906 13.2113C126.052 13.2113 125.711 13.8814 125.711 15.5656H128.011Z" fill="#2560AB"/>
        <path d="M154.933 19.7852C154.493 23.9777 152.238 26.6399 146.336 26.6399C139.374 26.6399 137.641 22.4565 137.641 17.9471C137.641 11.7263 141.135 8.89203 146.624 8.89203C153.46 8.89203 154.906 12.9577 154.969 15.8101H147.603C147.603 14.325 147.504 13.4286 146.705 13.4286C146.076 13.4286 145.726 13.9357 145.726 17.8112C145.726 21.2431 145.95 22.1305 146.624 22.1305C147.298 22.1305 147.522 21.225 147.603 19.7762L154.933 19.7852Z" fill="#2560AB"/>
        <path d="M156.102 9.31763H158.078V5.25192H165.83V9.31763H168.157V14.2345H165.83V20.1837C165.83 21.1435 166.082 21.4876 167.214 21.4876C167.435 21.4991 167.657 21.4991 167.879 21.4876V26.0875C166.519 26.4354 165.122 26.6058 163.719 26.5946C159.156 26.5946 158.078 25.0734 158.078 21.5781V14.2345H156.102V9.31763Z" fill="#2560AB"/>
        <path d="M169.828 15.0947C169.828 12.1428 169.828 9.91525 169.828 9.31762H177.446C177.446 9.85187 177.572 11.9526 177.509 12.6499C177.728 11.5673 178.32 10.5976 179.18 9.91178C180.039 9.22595 181.111 8.86802 182.207 8.90109V15.8191C178.398 15.8191 177.644 16.9601 177.644 19.8214V26.2324H169.837L169.828 15.0947Z" fill="#2560AB"/>
        <path d="M201.97 17.5667C201.97 22.0399 199.796 26.6218 192.618 26.6218C185.791 26.6218 183.491 22.212 183.491 17.6482C183.491 14.6963 184.785 8.88298 192.807 8.88298C200.829 8.88298 201.97 14.488 201.97 17.5667ZM200.047 3.0787L195.142 7.52472H189.393L192.636 3.0787H200.047ZM191.585 17.7116C191.585 21.0801 191.801 21.9947 192.78 21.9947C193.759 21.9947 193.885 20.9986 193.885 17.6935C193.885 14.3884 193.696 13.5644 192.753 13.5644C191.81 13.5644 191.621 14.2073 191.621 17.7569L191.585 17.7116Z" fill="#2560AB"/>
        <path d="M204.153 14.651C204.153 11.1286 204.153 10.1235 204.153 9.31763H211.852C211.915 9.63456 211.942 10.5853 211.978 10.866C212.519 10.2043 213.209 9.68132 213.989 9.33979C214.77 8.99826 215.62 8.84793 216.469 8.9011C219.649 8.9011 221.446 11.2192 221.446 14.7778V26.2324H213.631V15.8191C213.631 14.5514 213.352 14.2707 212.849 14.2707C212.346 14.2707 211.996 14.6148 211.996 16.0817V26.2324H204.189L204.153 14.651Z" fill="#2560AB"/>
        <path d="M223.988 3.60391H231.804V8.01371H223.988V3.60391ZM223.988 9.31764H231.804V26.2324H223.988V9.31764Z" fill="#2560AB"/>
        <path d="M251.162 19.7852C250.722 23.9777 248.467 26.6399 242.565 26.6399C235.612 26.6399 233.878 22.4565 233.878 17.9471C233.878 11.7263 237.372 8.89203 242.861 8.89203C249.688 8.89203 251.144 12.9577 251.207 15.8101H243.84C243.84 14.325 243.742 13.4286 242.942 13.4286C242.313 13.4286 241.972 13.9357 241.972 17.8112C241.972 21.2431 242.187 22.1305 242.915 22.1305C243.643 22.1305 243.768 21.225 243.894 19.7762L251.162 19.7852Z" fill="#2560AB"/>
        <path d="M269.749 20.7722C269.716 22.5868 269.8 24.4016 270 26.2052H263.191C262.989 25.7078 262.862 25.1829 262.814 24.6478C262.189 25.318 261.426 25.8414 260.578 26.181C259.731 26.5206 258.819 26.668 257.909 26.6127C257.197 26.6651 256.482 26.5642 255.812 26.3167C255.141 26.0691 254.531 25.6806 254.021 25.177C253.511 24.6734 253.114 24.0662 252.855 23.3957C252.596 22.7253 252.481 22.0069 252.519 21.2884C252.519 18.5719 253.785 15.5746 260.397 15.5746H262.194V14.2707C262.194 13.3109 261.852 12.9668 261.295 12.9668C260.505 12.9668 260.289 13.4739 260.226 14.5243H253.085C253.246 11.7263 255.133 8.90109 261.529 8.90109C268.23 8.90109 269.749 11.5361 269.749 14.968V20.7722ZM262.158 18.7439H261.466C260.433 18.7439 260.083 19.5045 260.083 20.4553C260.083 21.4061 260.559 21.8498 261.152 21.8498C262.05 21.8498 262.158 21.0892 262.158 19.3144V18.7439Z" fill="#2560AB"/>
    </g>
    <defs>
        <clipPath id="clip0_132_2339">
            <rect width="270" height="39" fill="white"/>
        </clipPath>
    </defs>
</svg>
