<svg width="220" height="163" viewBox="0 0 220 163" fill="none" xmlns="http://www.w3.org/2000/svg">
    <g clip-path="url(#clip0_126_3219)">
        <path d="M13.3605 56C13.2123 55.7749 13.0521 55.5579 12.8805 55.35C12.7205 55.11 12.4705 54.95 12.3105 54.71C12.33 54.5163 12.3026 54.3208 12.2305 54.14C12.2305 53.98 12.0705 53.81 11.9905 53.65C11.9105 53.49 11.9905 53.25 11.9105 53.09C11.8305 52.68 11.5805 52.36 11.3405 52.36C11.3142 53.253 11.3677 54.1465 11.5005 55.03C12.8005 56.65 13.3605 59.03 18.8705 60.78C21.5505 62.16 35.1505 68.39 36.4505 67.67C37.1805 67.26 40.7405 61.75 43.3305 57.38C42.0405 56.73 39.3305 55.38 37.9105 54.62C36.4505 57.62 34.4205 61.43 33.9105 61.62C33.7505 61.7 33.5005 61.7 23.1405 58.38C22.8905 58.3 22.6505 58.22 22.3305 58.14L20.0005 57.42L18.5405 55.23C18.5405 55.23 15.7005 52.23 15.3005 52.4C15.1405 52.48 15.2205 52.8 15.4605 53.21L15.5405 53.37C15.7805 53.77 16.1105 54.1 16.1105 54.26C16.2023 54.4654 16.2565 54.6855 16.2705 54.91C13.8405 53.61 14.2705 53.53 13.7605 52.8C13.6041 52.658 13.4663 52.4967 13.3505 52.32C13.252 52.0342 13.1176 51.762 12.9505 51.51C12.7957 51.2776 12.5665 51.1048 12.3005 51.02C12.1405 51.02 12.1405 51.18 12.3005 51.59C12.7669 52.926 13.4829 54.1613 14.4105 55.23C14.5705 55.56 14.0805 55.15 13.5205 54.23C13.3083 54.0048 13.1175 53.7604 12.9505 53.5C12.8705 53.34 12.8705 53.01 12.7105 52.85C12.5505 52.69 12.4605 52.53 12.3805 52.37C12.3005 52.21 12.2205 51.8 12.1405 51.64C11.8205 51.07 11.4905 50.91 11.4105 50.91C11.6055 51.9288 11.8763 52.9315 12.2205 53.91C12.6411 54.6342 13.1053 55.3321 13.6105 56C13.6905 56.12 13.7705 56.45 13.3605 56Z" fill="#936559"/>
        <path d="M73.3799 89.25C73.3799 89.25 72.8199 88.6 72.5699 88.36C72.272 87.9761 72.0014 87.5717 71.7599 87.15C71.7599 87.15 69.9999 83.91 70.2299 83.82C70.5987 83.8457 70.9493 83.9894 71.2299 84.23C71.3899 84.39 71.6299 84.55 71.7999 84.72C71.9699 84.89 71.8799 84.8 71.9599 84.8H72.1199C72.1999 84.8 72.2799 84.8 72.2799 84.72C72.2799 84.64 72.3599 84.63 72.4399 84.63C72.6899 84.39 72.0399 83.63 71.7999 83.42C70.6699 82.5521 69.4949 81.7443 68.2799 81C67.9599 80.84 65.8499 74.68 64.9599 72.58C63.5799 69.17 62.3699 65.58 62.2099 65.29L60.8299 49.64L54.9199 47.94C54.9199 47.94 56.2099 65.28 56.4599 66.17C56.5399 66.57 60.3399 74.17 60.3399 74.17C62.4499 77.81 64.3399 80.97 64.6399 81.62C64.6399 81.62 65.1199 83.72 65.3699 85.18C65.6312 86.1941 66.0104 87.1742 66.4999 88.1C66.8256 89.0782 67.2903 90.0043 67.8799 90.85C68.7699 91.99 68.4399 90.53 68.4399 90.53C68.0256 89.7279 67.6907 88.8872 67.4399 88.02C67.5999 87.94 68.1699 89.31 69.1399 90.61L69.8699 91.61C70.4399 92.42 71.0899 92.26 70.5999 91.29L69.8699 90.07C69.6263 89.6817 69.4092 89.2775 69.2199 88.86C68.8199 88.13 68.5699 87.64 68.5699 87.64C68.5699 87.64 68.6599 87.48 68.8999 87.8C69.3119 88.4986 69.7731 89.1669 70.2799 89.8C70.5999 90.12 71.1699 90.85 71.1699 90.85C71.1699 90.85 72.1699 91.85 72.2999 91.85C72.7099 91.61 72.1399 90.64 71.6499 90.23C71.4246 89.8232 71.1528 89.444 70.8399 89.1C70.8399 89.1 69.8399 87.32 70.1099 87.16C70.3799 87 73.4299 90.88 73.8399 90.56C74.2799 90.39 73.3799 89.25 73.3799 89.25Z" fill="#936559"/>
        <path d="M21.06 154.78C21.06 154.78 18.79 155.43 17.66 155.59C16.53 155.75 14.98 154.37 14.09 154.7C13.2 155.03 13 160 13 160C13 160 26.45 161.22 29.52 160.33C30.86 160 25.68 156.32 21.06 154.78Z" fill="#184655"/>
        <path d="M14.3393 149.84L14.0093 154.84C13.9293 155.49 13.5293 157.03 13.5293 157.59C13.5293 159.78 23.2493 155.73 21.0593 154.76C20.8993 154.68 19.5193 153.54 19.4393 152.81C19.3593 151.68 19.3593 149.81 19.3593 149.81L14.3393 149.84Z" fill="#F7A491"/>
        <path d="M29.9993 146.19C29.9993 146.19 29.5093 151.54 28.1393 152.51C26.7693 153.48 24.9793 157.13 25.8693 159.07C25.9975 159.367 26.1984 159.627 26.4536 159.827C26.7087 160.026 27.0098 160.158 27.3293 160.21C28.2466 160.456 29.2213 160.367 30.0793 159.96C30.9502 159.555 31.6409 158.843 32.0193 157.96C32.5952 156.686 32.9016 155.308 32.9193 153.91C32.9106 151.634 33.4346 149.387 34.4493 147.35L29.9993 146.19Z" fill="#F7A491"/>
        <path d="M50.7008 148.38C50.9082 150.751 50.9382 153.134 50.7908 155.51C50.6208 156.51 49.5708 158.34 50.0608 159.23C50.2798 159.697 50.6265 160.092 51.0608 160.37L63.2908 160.53C63.9408 160.53 63.5308 160.12 62.9708 159.72C61.5836 158.785 60.1181 157.972 58.5908 157.29C58.2235 157.103 57.8723 156.885 57.5408 156.64C56.8882 156.199 56.2906 155.682 55.7608 155.1C54.8708 154.1 54.7608 149.35 54.7608 149.35L50.7008 148.38Z" fill="#F7A491"/>
        <path d="M32.4008 157.05C31.2877 157.224 30.1481 157.09 29.1061 156.661C28.064 156.233 27.1595 155.527 26.4908 154.62C25.7608 156.07 25.2708 157.86 25.8408 159.07C26.1445 159.553 26.5795 159.939 27.0949 160.184C27.6103 160.428 28.1847 160.52 28.7508 160.45C29.32 160.482 29.8854 160.339 30.3708 160.04C30.873 159.746 31.2927 159.33 31.5908 158.83C31.9709 158.293 32.2458 157.689 32.4008 157.05Z" fill="#0069B3"/>
        <path d="M35.7202 149.84L35.4002 154.84C35.3202 155.49 34.9102 157.03 34.9102 157.59C34.9102 159.78 44.6302 155.73 42.4402 154.76C42.2802 154.68 41.2302 154.03 41.1502 153.3C41.0702 152.17 40.8202 149.82 40.8202 149.82L35.7202 149.84Z" fill="#F7A491"/>
        <path d="M42.3594 154.78C42.3594 154.78 40.0894 155.43 38.9594 155.59C37.8294 155.75 36.2894 154.37 35.3994 154.7C34.5094 155.03 34.6694 160.04 34.6694 160.04C34.6694 160.04 47.3794 161.04 50.7894 159.96C52.1594 159.56 47.0594 156.32 42.3594 154.78Z" fill="#184655"/>
        <path d="M60.261 76.86C60.261 76.86 61.801 85.61 60.831 91.36C59.861 97.11 55.001 150.16 55.001 150.16L49.571 150.49C49.571 150.49 48.441 128.29 48.571 125.21C48.9175 122.423 49.5234 119.674 50.381 117L49.811 99.1L56.621 75.61L60.261 76.86Z" fill="#E20613"/>
        <path d="M44.3902 75C44.3902 75 40.1802 81.39 39.1202 86.66C38.0602 91.93 39.8502 108.2 37.9102 115.09C36.8502 118.82 32.9102 124.65 32.2402 129.51C31.5702 134.37 29.2402 147.08 29.2402 147.08L34.6702 148.14L47.2202 116.47L57.0002 87.79L59.5102 73.05L44.3902 75Z" fill="#F29100"/>
        <path d="M29.7296 77.26L33.8596 79.05L42.4396 120.19L42.1196 151.05L35.2296 151.21C35.2296 151.21 31.9996 124.24 31.9996 122.14C31.9996 120.04 17.0996 85.53 17.0996 85.53L29.7296 77.26Z" fill="#355389"/>
        <path d="M26.57 79.53C26.57 79.53 25.43 110.72 25.43 116.06C25.43 121.4 23.81 151.46 23.81 151.46L14.17 151.78C14.17 151.78 13.69 142.63 12.96 129.26C12.88 127.16 13.12 122.95 12.96 120.76C11.91 105.13 9.72 90.39 10.77 84.55C10.93 83.55 11.26 81.15 11.83 80.55C16.36 75.89 26.57 79.53 26.57 79.53Z" fill="#0069B3"/>
        <path d="M59.4501 30C60.1001 27.25 60.6701 24.41 59.0501 21.41C58.4426 20.2606 57.5643 19.2765 56.4909 18.5429C55.4176 17.8093 54.1816 17.3484 52.8901 17.2C45.5201 16.31 44.8901 22.95 37.8301 25.79C34.8301 27 31.7501 26.68 29.0801 28.3C24.2201 31.22 21.7101 39.23 24.8701 46.77C32.7201 65.11 51.1901 53 53.5401 49.48C55.4001 46.73 59.0501 31.74 59.4501 30Z" fill="#13375B"/>
        <path d="M57.5105 42.11C53.5105 43.33 42.8505 46.81 42.2805 46.65L32.4805 38.87L26.4805 44.14C26.4805 44.14 39.8405 54.14 40.6505 54.42C41.2205 54.66 53.0405 48.59 58.5505 45.92C58.6585 44.5676 58.2906 43.22 57.5105 42.11Z" fill="#F48C7F"/>
        <path d="M39.6909 43.24L33.5309 51.18C33.5309 51.18 27.0509 46.24 24.7009 43.57C21.7909 40.33 18.6309 33.36 19.1209 33.12C21.0098 32.2233 23.1241 31.9133 25.1909 32.23C32.0009 33.77 39.6909 43.24 39.6909 43.24Z" fill="#0069B3"/>
        <path d="M55.8104 55.64L62.0004 52.07C62.0004 52.07 59.1704 40.25 54.1504 39.84L55.8104 55.64Z" fill="#F29100"/>
        <path d="M47.8705 38.71C45.9663 39.0926 44.2028 39.9882 42.7705 41.3C38.0705 45.84 45.5205 63.41 45.9305 66.49C46.3405 69.57 42.6005 76.78 42.6005 76.78C42.6005 76.78 56.5405 79.37 60.2605 76.86C60.2605 76.86 60.7505 52.15 60.2605 49.86C59.7705 47.57 55.3205 40.86 54.5105 39.97C53.7005 39.08 47.8705 38.71 47.8705 38.71Z" fill="#FAE0B2"/>
        <path d="M49.7296 31.18C49.7205 31.3424 49.6937 31.5034 49.6496 31.66C49.2423 34.061 48.6198 36.4205 47.7896 38.71C46.9996 40.17 50.4596 45 53.8596 44.38C54.8596 44.22 53.0496 40 53.1296 39.6L53.7796 36.44C53.9396 35.79 54.0296 35.06 54.1896 34.44C54.5096 32.65 54.8396 31.11 54.8396 31.11L49.7296 31.18Z" fill="#936559"/>
        <path d="M49.6507 31.66C49.7001 31.5046 49.7271 31.343 49.7307 31.18L54.7307 31.01C54.7307 31.01 54.4107 32.47 54.0907 34.33C53.9207 34.98 53.8407 35.63 53.6807 36.33C52.7607 36.1948 51.9087 35.767 51.2507 35.11C50.426 34.3981 49.8106 33.4751 49.4707 32.44C49.5559 32.1865 49.6162 31.9252 49.6507 31.66Z" fill="#8F5A2E"/>
        <path d="M52.8101 19.19C51.4105 19.4917 50.1551 20.2605 49.2501 21.37C47.7901 23.32 46.1701 29.23 49.8101 32.47C53.4501 35.71 57.1801 32.07 57.6701 28.18C58.1601 24.29 58.1601 19.11 52.8101 19.19Z" fill="#936559"/>
        <path d="M58.8906 26.88C58.4806 27.77 57.6706 28.18 57.2706 27.94C56.8706 27.7 56.7806 26.72 57.1806 25.94C57.5806 25.16 58.4006 24.64 58.8006 24.89C59.2006 25.14 59.3706 26 58.8906 26.88Z" fill="#936559"/>
        <path d="M53.3802 19.11C53.3802 19.11 50.2202 24.78 48.0002 25C45.7802 25.22 45.4102 28.24 45.4102 28.24C45.4102 28.24 46.2202 21.35 48.4902 19.98C49.997 19.209 51.6999 18.9061 53.3802 19.11Z" fill="#13375B"/>
        <path d="M48.6801 26.4C48.8401 27.4 48.5201 28.34 47.8701 28.4C47.2201 28.46 46.5701 27.83 46.3301 26.86C46.0901 25.89 46.4901 24.92 47.1401 24.86C47.8701 24.61 48.5201 25.34 48.6801 26.4Z" fill="#936559"/>
        <path d="M36.2101 57.42L44.8701 58.42C44.8701 58.42 48.1101 49.92 47.4601 45.42C46.8101 40.92 45.2001 40.48 44.2201 40.56C41.6301 40.64 39.1201 44.13 37.4201 49.56C35.7201 54.99 36.2101 57.42 36.2101 57.42Z" fill="#F29100"/>
        <path d="M15.1503 32.15C15.1503 32.15 10.3703 32.8 9.07031 33.77C7.91185 34.753 6.90142 35.8982 6.07031 37.17C6.07031 37.17 11.9103 64.87 11.9903 69.57C12.0003 73.21 10.6903 82 10.6903 82C10.6903 82 28.4303 83.14 35.1503 80.46C35.1503 80.46 33.0503 69.93 33.0503 67.18C33.0503 64.43 30.5403 39.28 30.0003 37.49C29.5103 35.87 28.5403 33.04 25.3003 32.31C22.0603 31.58 15.1503 32.15 15.1503 32.15Z" fill="#8AACDB"/>
        <path d="M53.6992 39.6C53.9305 39.3798 54.2069 39.2126 54.5092 39.11C54.8303 38.9988 55.1745 38.9713 55.5092 39.03C56.1118 39.1698 56.6805 39.4284 57.1819 39.7907C57.6833 40.153 58.1073 40.6117 58.4292 41.14C58.2433 42.1546 57.9062 43.1355 57.4292 44.05C57.3934 44.1205 57.3438 44.1831 57.2833 44.234C57.2228 44.285 57.1527 44.3233 57.0772 44.3466C57.0016 44.3699 56.9221 44.3778 56.8435 44.3698C56.7648 44.3618 56.6885 44.3381 56.6192 44.3C56.5392 44.22 56.6192 43.73 56.6192 43.57C56.6192 43.41 57.0992 42 57.0992 42C57.0992 42 56.3692 43.38 55.9692 43.46H55.8092C55.7292 43.46 55.7292 43.46 55.6492 43.38C55.5692 43.3 55.5592 43.3 55.4792 43.3C55.3992 43.3 55.3992 43.21 55.3992 43.13C55.5704 42.535 55.8156 41.9638 56.1292 41.43C56.1292 41.43 55.2392 42.73 54.8392 42.65C54.4392 42.57 54.5892 42.08 54.6692 41.92C54.7492 41.76 55.3192 40.87 55.3192 40.87C55.3192 40.87 54.3192 42.24 54.1892 41.76C54.2632 41.2237 54.4254 40.7034 54.6692 40.22L53.6992 39.6Z" fill="#F7A491"/>
        <path d="M17.4107 10.28C17.4107 10.28 14.2607 7.93001 12.7207 11.74C12.2885 11.6946 11.8528 11.6946 11.4207 11.74C10.7253 12.0798 10.0738 12.5029 9.48067 13C8.45832 13.6892 7.61123 14.6078 7.00701 15.6825C6.40279 16.7573 6.05818 17.9584 6.00067 19.19C5.76067 22.1 6.81067 24.29 8.68067 26.56C9.1976 27.2301 9.82694 27.8053 10.5407 28.26C11.4307 28.75 12.1607 28.42 12.9707 28.66C13.7807 28.9 13.8607 29.66 14.7507 29.39C15.9707 29.07 17.2607 27.61 18.7507 27.94C20.2407 28.27 23.6107 27.04 23.6107 27.04C27.9807 25.59 25.4707 17.04 24.8307 14.04C24.0007 11.25 20.0907 9.39001 17.4107 10.28Z" fill="#E3E3E3"/>
        <path d="M20.4107 29.47L21.4107 32.55L21.9007 34.25C21.9007 34.25 21.8207 37.33 21.0107 38.06C19.7107 39.36 14.8507 34.06 14.8507 34.06L13.7207 24.34L20.4107 29.47Z" fill="#F7A491"/>
        <path d="M14.1702 27.61C14.9647 28.8935 16.0147 29.9998 17.2551 30.86C18.4955 31.7202 19.8997 32.3159 21.3802 32.61L20.3802 29.45L13.7402 24.45L14.1702 27.61Z" fill="#F47458"/>
        <path d="M15.5497 14.57C16.1718 14.2314 16.8609 14.0341 17.568 13.9921C18.275 13.9501 18.9826 14.0645 19.6405 14.3271C20.2983 14.5896 20.8902 14.9939 21.374 15.5112C21.8578 16.0285 22.2217 16.6461 22.4397 17.32C22.8397 18.54 23.2497 20.08 23.6497 21.86C24.4597 25.99 22.9997 30.45 21.0597 30.77C19.1197 31.09 13.4497 29.31 12.2297 23.4C11.4997 19.75 12.7997 16.11 15.5497 14.57Z" fill="#F7A491"/>
        <path d="M13.7694 23.64C13.8792 24.0205 13.8362 24.4289 13.6494 24.7782C13.4626 25.1275 13.1469 25.39 12.7694 25.51C12.0394 25.67 11.3094 25.02 11.1494 24.05C11.0416 23.6628 11.0916 23.2487 11.2884 22.8983C11.4852 22.5478 11.8127 22.2896 12.1994 22.18C12.8794 22 13.6094 22.67 13.7694 23.64Z" fill="#F7A491"/>
        <path d="M19.4396 25.59C19.4396 25.59 16.9296 26.32 16.6896 27.21C16.5703 27.8139 16.6119 28.4385 16.8102 29.0212C17.0086 29.604 17.3567 30.1243 17.8196 30.53C18.9496 31.53 21.6296 31.09 22.3596 30.61C23.0896 30.13 23.7296 27.77 23.0796 26.4C22.4296 25.03 19.4396 25.59 19.4396 25.59Z" fill="#E7E7E7"/>
        <path d="M18.5508 27.45C18.5508 27.45 18.5508 28.45 18.8708 28.66C19.2301 28.8486 19.6137 28.9866 20.0108 29.07C20.3027 29.1189 20.6025 29.0838 20.8752 28.9687C21.1479 28.8536 21.3822 28.6633 21.5508 28.42C21.5508 28.34 21.6308 28.34 21.6308 28.26C21.8128 27.8155 21.9469 27.3529 22.0308 26.88C21.5069 26.7146 20.9601 26.6336 20.4108 26.64C19.7681 26.8545 19.1456 27.1255 18.5508 27.45Z" fill="#F7A491"/>
        <path d="M57.5095 156.64C55.2061 157.274 52.764 157.19 50.5095 156.4C50.1895 157.4 49.6995 158.59 49.9495 159.31C50.2695 160.21 50.6695 160.37 51.0795 160.37C54.0795 160.45 61.9295 160.53 64.1995 160.61C64.2795 160.61 64.3595 160.61 64.3595 160.53C64.3595 160.45 64.4395 160.45 64.5295 160.37C64.6195 160.29 64.6095 160.21 64.5295 160.21C64.4495 160.21 64.5295 160.04 64.4395 160.04C63.9095 159.31 57.7495 156.8 57.5095 156.64Z" fill="#0069B3"/>
        <path d="M27.3001 60.33L27.3801 60.98C27.3801 61.06 27.4601 61.14 27.4601 61.23C27.4601 61.32 27.5401 61.39 27.6201 61.39C27.6515 61.4206 27.6894 61.4437 27.7309 61.4575C27.7725 61.4714 27.8167 61.4757 27.8601 61.47H28.1101L41.8001 59.12C41.8826 59.1215 41.9638 59.0998 42.0345 59.0574C42.1053 59.0149 42.1626 58.9535 42.2001 58.88C42.2801 58.71 42.3601 58.55 42.2801 58.39L42.2001 57.74C42.2016 57.6575 42.1799 57.5763 42.1375 57.5056C42.0951 57.4348 42.0336 57.3775 41.9601 57.34C41.8904 57.2892 41.8098 57.2555 41.7247 57.2416C41.6395 57.2277 41.5524 57.234 41.4701 57.26L27.7801 59.61C27.6977 59.6085 27.6164 59.6302 27.5457 59.6726C27.475 59.7151 27.4176 59.7765 27.3801 59.85C27.3143 60.001 27.2869 60.1659 27.3001 60.33Z" fill="#13375B"/>
        <path d="M7.86 35.71C9.48 35.63 10.86 46.24 9.86 47.29C8.86 48.34 8.65 61.39 8.65 61.39L23.81 61C25.1931 60.129 26.5283 59.1843 27.81 58.17C28.3 57.68 30.57 57.92 31.21 58.57C31.85 59.22 29.84 58.73 29.27 59.06C28.7 59.39 29.68 60.35 29.68 60.35C29.68 60.35 33.48 60.92 34.29 60.11C35.1 59.3 37.05 58.01 37.29 58.73C37.45 59.14 36.4 60.35 35.83 60.92C36.56 60.35 37.45 59.79 37.69 59.92C38.26 60.08 38.02 60.81 37.69 60.92C36.4694 61.8738 35.2011 62.765 33.89 63.59C33.4 63.76 26.35 63.92 25.14 64.16C25.14 64.16 5.14 68.7 4 68.45C3 68.21 2 61.81 2 56.87C2 52.23 2.83 35.87 7.86 35.71Z" fill="#F7A491"/>
        <path d="M10 33.28C7.77101 33.9958 5.80008 35.348 4.33 37.17C1.7 40.09 0 56.69 0 56.69L9.07 58.15L9.8 50.15L12.23 46.5L10 33.28Z" fill="#8AACDB"/>
        <path d="M117.79 117C117.79 117 120.24 111.16 119.09 110.68C118.6 110.48 118.09 109.4 117.74 108.11C117.289 106.544 116.955 104.946 116.74 103.33C116.56 101.79 120.52 102.09 120.89 102.09C121.479 102.13 122.038 102.367 122.477 102.762C122.915 103.158 123.209 103.688 123.31 104.27C123.73 106.18 123.13 110.2 123 111.05C122.87 111.9 117.79 117 117.79 117Z" fill="#ABBCC9"/>
        <path d="M118.39 109.75C118.844 110.96 119.002 112.262 118.851 113.546C118.7 114.83 118.243 116.059 117.52 117.13C114.26 121.51 114.52 126.67 114.32 129.13C113.94 136.68 118.84 147.94 119.8 148.54C120.76 149.14 127.74 148.93 128.8 148.69C129.86 148.45 128.93 147.6 127.63 147.42C126.33 147.24 122.3 142.42 121.44 133.63C120.7 126.1 121.22 124.1 121.93 117.63C122.01 116.85 122.78 114.39 122.93 113.63C123.204 112.096 123.15 110.521 122.77 109.01C122.55 108.24 118.39 109.75 118.39 109.75Z" fill="#ABBCC9"/>
        <path d="M127.53 94.41C127.53 94.41 127.53 95.85 127.32 98.41C126.84 103.58 117.98 100.76 117.32 99.13C117.013 97.9037 116.819 96.6518 116.74 95.39L127.53 94.41Z" fill="#B9D3D3"/>
        <path d="M127.361 98.33C127.361 98.33 127.241 99.24 121.841 99.52C120.312 99.6223 118.776 99.4634 117.301 99.05C117.301 99.05 117.621 101.22 117.931 103.55C118.281 106.26 119.861 104.13 120.221 108.55C120.541 112.38 125.101 111.93 125.081 108.76C125.081 103.76 126.691 105.76 127.081 103.65C127.434 101.9 127.528 100.107 127.361 98.33Z" fill="#1A1A1A"/>
        <path d="M115.941 126.34C116.05 123.772 116.553 121.236 117.431 118.82C117.931 117.63 118.641 117.06 119.101 115.68C119.414 114.514 119.644 113.328 119.791 112.13C119.791 111.21 122.631 111.5 122.631 112.31C122.4 113.781 122.045 115.229 121.571 116.64C121.214 118.179 120.95 119.739 120.781 121.31C120.781 121.51 120.551 123.21 120.421 125.12C120.311 126.7 119.751 133.12 121.191 138.87C121.876 142.043 123.475 144.946 125.791 147.22C125.791 147.22 120.981 147.28 120.571 147.16C120.161 147.04 118.341 143.6 117.431 140.31C116.07 135.786 115.565 131.049 115.941 126.34Z" fill="#1A1A1A"/>
        <path d="M123.289 77.93C121.999 73.35 119.059 64 119.059 64C119.059 64 118.369 61.78 118.159 61.36L114.279 63.51L106.449 75.51L115.349 96.1C115.548 96.5575 115.883 96.9424 116.31 97.202C116.736 97.4616 117.231 97.5831 117.729 97.55L125.999 97C126.371 96.9757 126.734 96.8737 127.064 96.7007C127.394 96.5277 127.685 96.2874 127.916 95.9954C128.148 95.7034 128.316 95.366 128.41 95.0052C128.503 94.6443 128.52 94.2678 128.459 93.9C127.508 88.3569 125.767 82.9788 123.289 77.93Z" fill="#355389"/>
        <path d="M105.891 143.69C105.586 141.551 105.586 139.379 105.891 137.24C104.091 137.24 102.431 136.9 100.631 136.96C100.631 139.96 100.701 144.38 100.701 144.38L100.631 148.12L113.311 148.19C113.311 148.19 113.171 148.26 109.431 145.9C109.081 145.77 106.001 144.8 105.891 143.69Z" fill="#FEDBAA"/>
        <path d="M100.49 149.16H113.58C114.07 149.09 114.21 148.74 114 148.47C113.65 147.98 111.09 146.74 109.36 145.97C106.36 146.32 101.04 145.07 100.56 144.38C99.7901 146.67 100.21 149.09 100.49 149.16Z" fill="#8AACDB"/>
        <path d="M115.109 34.27L119.889 29.21C119.889 29.21 124.999 32.05 130.999 34.69C132.659 31.84 135.289 22.49 135.429 22C135.569 21.51 132.309 15.91 133.009 15.77C133.709 15.63 134.669 18.77 135.429 18.47C136.189 18.17 138.199 10.85 138.689 11.26C139.589 12.03 137.689 15.77 138.129 16.05C138.569 16.33 139.729 11.82 140.629 12.05C141.529 12.28 139.099 16.13 139.379 16.48C139.659 16.83 142.149 13.22 142.639 14.06C142.919 14.54 140.349 17.24 140.909 17.52C141.469 17.8 143.749 16.13 144.019 16.69C144.289 17.25 141.879 17.8 141.179 19.25C140.479 20.7 139.239 21.19 138.899 23.83C138.559 26.47 137.369 40.67 134.459 41.77C131.879 42.86 115.109 34.27 115.109 34.27Z" fill="#FEDBAA"/>
        <path d="M104.71 56.86C104.888 58.93 104.482 61.0084 103.54 62.86C102.54 64.8 100.9 66.39 99.6599 68.75C97.3699 73.35 96.1199 79.8 96.9999 84C96.9999 84 101.71 102 101.51 108.6C101.224 111.883 100.736 115.146 100.05 118.37C99.5699 121.01 99.4299 140.69 99.4299 140.69L106.15 140.48L111.28 108.67L113.43 80.4L118.14 61.34L104.71 56.86Z" fill="#466EB6"/>
        <path d="M118.92 15.35C118.3 12.58 117.74 9.74 114.92 7.73C113.924 6.9236 112.735 6.39065 111.471 6.18373C110.207 5.9768 108.91 6.10304 107.71 6.55C100.44 9.19 104.39 14.94 95.3796 21.1C92.6096 23.04 91.4996 23.67 89.4896 26.23C86.6496 29.77 85.1196 34.55 86.5796 38.5C89.4896 46.6 98.5796 48.96 103.28 47.23C112.13 44 119.47 32.81 120 29.77C120.44 26.51 119.27 17.15 118.92 15.35Z" fill="#1D1D1B"/>
        <path d="M120.31 37.39C122.45 38.39 126.31 39.88 126.31 39.88L128.55 33C116.15 25.94 117.12 27 107.76 27.18C100.28 27.32 97.1598 25.87 90.7598 43.18C90.7598 43.18 95.6098 45.4 97.4098 46.09C98.1698 43.94 99.4898 39.65 100.32 42.14C101.525 45.7884 102.421 49.5315 103 53.33C103.35 55.61 104.18 58.52 103.76 60.81C106.712 61.4082 109.697 61.8257 112.7 62.06C114.54 62.0505 116.375 61.863 118.18 61.5C118.18 61.5 118.94 45.43 119.36 44.73C120.083 43.7815 120.535 42.6537 120.665 41.4678C120.795 40.282 120.6 39.083 120.1 38C119.82 37.25 119.89 37.18 120.31 37.39Z" fill="#8AACDB"/>
        <path d="M111 65.31C111.276 65.2728 111.555 65.2728 111.83 65.31C112.109 65.2981 112.388 65.3216 112.66 65.38C112.808 65.2637 112.973 65.1725 113.15 65.11C113.29 65.04 113.49 65.04 113.7 64.97C113.91 64.9 113.98 64.76 114.12 64.69C114.53 64.55 114.88 64.48 115.02 64.69C114.393 65.2551 113.717 65.7637 113 66.21C111 66.21 108.84 67.21 104.13 64.21C101.39 63 88.2901 56.58 88.0001 55.13C87.8701 54.37 89.8801 48.2 91.5401 43.56C92.7901 44.11 95.5401 45.29 97.0101 45.98C95.6301 48.89 94.0101 52.77 94.1701 53.26C94.2401 53.4 94.3801 53.6 103.25 59.42C103.46 59.56 103.73 59.7 103.94 59.84L105.94 61.16L108.44 60.88C108.44 60.88 112.44 61.16 112.52 61.64C112.59 61.85 112.25 61.92 111.83 61.99H111.62C111.289 62.0381 110.955 62.0615 110.62 62.06C110.404 62.1263 110.196 62.2169 110 62.33C112.5 63.33 112.29 62.96 113.12 62.96C113.325 62.9951 113.535 62.9951 113.74 62.96C114.033 62.9222 114.315 62.827 114.57 62.68C114.842 62.6744 115.109 62.7473 115.34 62.89C115.41 62.96 115.27 63.1 114.92 63.24C113.636 63.6901 112.28 63.9002 110.92 63.86C110.58 63.93 111.2 64.07 112.17 64C112.469 64.0351 112.771 64.0351 113.07 64C113.266 63.9004 113.474 63.8297 113.69 63.79C113.872 63.7363 114.061 63.7127 114.25 63.72C114.469 63.6183 114.701 63.5476 114.94 63.51C115.275 63.4751 115.613 63.4988 115.94 63.58C115.057 64.0802 114.13 64.4986 113.17 64.83C113.17 64.83 111.17 65.11 110.74 65.11C110.74 65.11 110.47 65.24 111 65.31Z" fill="#FEDBAA"/>
        <path d="M108.661 20.27C108.661 20.27 108.11 24.85 107.76 26.44C107.41 28.03 106.86 33.37 110.33 34.2C113.8 35.03 112.68 28.52 112.75 26.79C112.82 25.06 113.75 19.16 113.75 19.16L108.661 20.27Z" fill="#FEDBAA"/>
        <path d="M108.461 21.73L108.591 21.8C109.305 22.2878 110.146 22.5545 111.01 22.567C111.875 22.5794 112.724 22.337 113.451 21.87C113.651 20.41 113.861 19.23 113.861 19.23L108.731 20.23C108.583 20.7179 108.493 21.2213 108.461 21.73Z" fill="#F29100"/>
        <path d="M109.701 8.35C108.38 8.82175 107.259 9.72787 106.521 10.92C105.341 12.92 104.781 18.68 109.081 21.17C113.381 23.66 116.431 19.72 116.291 15.98C116.151 12.24 115.111 7.38 109.701 8.35Z" fill="#FEDBAA"/>
        <path d="M117.191 14.38C117.261 15.38 116.841 16.11 116.291 16.18C115.741 16.25 115.291 15.42 115.181 14.52C115.071 13.62 115.521 12.79 116.081 12.72C116.641 12.65 117.191 13.41 117.191 14.38Z" fill="#FEDDAA"/>
        <path d="M110.33 8.15001C110.33 8.15001 108.04 14.15 105.75 14.8C103.46 15.45 103.67 18.4 103.67 18.4C103.67 18.4 103.4 11.54 105.48 9.88001C106.891 8.83804 108.578 8.23618 110.33 8.15001Z" fill="#1D1D1B"/>
        <path d="M106.72 16.05C107.07 17.05 106.86 17.92 106.24 18.19C105.62 18.46 104.78 17.85 104.44 16.88C104.1 15.91 104.3 15.01 104.92 14.73C105.54 14.45 106.31 15.08 106.72 16.05Z" fill="#FEDDAA"/>
        <path d="M111.5 38L109.94 38.85C109.848 38.9006 109.746 38.9295 109.641 38.9346C109.536 38.9396 109.432 38.9207 109.335 38.8793C109.239 38.8378 109.153 38.7749 109.085 38.6953C109.016 38.6157 108.967 38.5216 108.94 38.42C108.899 38.2693 108.91 38.1091 108.972 37.9656C109.034 37.822 109.143 37.7037 109.28 37.63L111.76 36.29H113.32V48.95C113.322 49.0664 113.3 49.1819 113.256 49.2898C113.213 49.3978 113.148 49.496 113.066 49.5787C112.984 49.6615 112.887 49.7272 112.779 49.7721C112.672 49.8169 112.557 49.84 112.44 49.84C112.324 49.8413 112.208 49.8195 112.101 49.7759C111.993 49.7323 111.894 49.6677 111.812 49.5858C111.729 49.504 111.663 49.4065 111.618 49.2991C111.573 49.1917 111.55 49.0764 111.55 48.96L111.5 38Z" fill="white"/>
        <path d="M117.479 7.67C117.479 7.67 115.289 1.54 113.729 0.750004C113.224 0.454744 112.678 0.235713 112.109 0.100004C110.109 -0.359996 104.279 0.970004 103.399 1.27C102.902 1.42788 102.442 1.68709 102.05 2.03131C101.658 2.37552 101.341 2.79728 101.119 3.27C100.589 5.32 100.279 9.61 102.119 12.91C102.169 12.91 106.049 7 117.479 7.67Z" fill="#8AACDB"/>
        <path d="M116.55 9.57001C116.55 9.57001 121.12 8.20001 121.4 6.05001C121.68 3.90001 110.23 5.25001 108.6 6.47001C106.733 7.77647 105.117 9.40933 103.83 11.29C103.83 11.29 111.46 8.00001 116.55 9.57001Z" fill="#0069B3"/>
        <path d="M177.561 154.25C177.561 154.25 177.851 156.86 177.851 157.3V157.73L177.631 158.17L177.561 158.31L179.151 160.49L185.601 160.56C185.751 160.56 184.731 159.04 184.731 159.04C184.731 159.04 182.631 157.44 182.271 156.36C181.911 155.28 182.561 152.95 182.561 152.95L177.561 154.25Z" fill="#F7A491"/>
        <path d="M147.119 138.46C147.119 138.46 144.869 139.83 144.509 140.12L144.149 140.41L143.929 140.85L143.859 140.99L141.179 141.14C141.179 141.14 137.179 136.28 137.119 136.14C137.059 136 138.279 136.28 138.279 136.28C139.481 136.472 140.706 136.448 141.899 136.21C142.989 135.85 145.239 133.6 145.239 133.6L147.119 138.46Z" fill="#F7A491"/>
        <path d="M167.56 113.82L143.35 134.47L147.12 139.76C147.12 139.76 172.05 124.33 173.35 124.11C173.878 123.978 174.437 124.046 174.919 124.3C175.401 124.555 175.771 124.979 175.96 125.49C176.18 126.43 176.83 154.98 176.83 154.98H183.28L186.69 119L167.56 113.82Z" fill="#0069B3"/>
        <path d="M202.49 84.4C204.3 83.24 208.49 78.67 209.95 77.15C210.106 76.1878 210.56 75.2991 211.25 74.61C212.05 73.67 212.7 71.61 213.25 72.15C213.8 72.69 212.45 74.47 213.03 74.47C213.61 74.47 216.66 71.14 217.09 71.64C217.52 72.14 214.55 75.19 215.09 75.19C215.63 75.19 218.09 72.19 218.79 72.95C219.49 73.71 215.53 76.28 215.89 76.64C216.25 77 218.72 75.41 219.22 76.06C219.72 76.71 215.82 78.16 216.11 78.16C216.4 78.16 218.72 78.09 218.72 78.53C218.72 78.97 212.92 79.83 212.19 80.7C210.67 83.09 207.99 87.51 205.19 89.47C201.85 91.86 194.1 96.86 194.1 96.86L190.26 91.86C190.31 91.93 200.31 85.77 202.49 84.4Z" fill="#F7A491"/>
        <path d="M213 75.56C213.149 75.8507 213.225 76.1734 213.22 76.5C213.246 76.8395 213.198 77.1807 213.08 77.5C212.924 77.8135 212.729 78.1058 212.5 78.37C212.953 77.5074 213.127 76.5258 213 75.56Z" fill="#F48C7F"/>
        <path d="M166.999 79C165.549 77.41 162.719 72 161.709 70.09C161.762 69.1125 161.562 68.138 161.129 67.26C160.619 66.18 160.549 63.93 159.889 64.36C159.229 64.79 160.039 66.83 159.459 66.68C158.879 66.53 156.849 62.48 156.269 62.91C155.689 63.34 157.789 66.97 157.269 66.91C156.749 66.85 155.159 63.21 154.269 63.79C153.379 64.37 156.509 67.85 156.079 68.14C155.649 68.43 153.689 66.14 153.029 66.69C152.369 67.24 155.789 69.59 155.499 69.52C155.209 69.45 152.959 68.79 152.889 69.23C152.819 69.67 158.179 71.98 158.609 73C159.479 75.75 160.929 80.68 163.029 83.29C165.639 86.48 171.799 93.36 171.799 93.36L176.799 89.59C176.759 89.4 168.639 80.85 166.999 79Z" fill="#F7A491"/>
        <path d="M159.149 67.66C158.92 67.9108 158.746 68.2073 158.639 68.53C158.525 68.8505 158.478 69.1906 158.499 69.53C158.54 69.8681 158.664 70.1909 158.859 70.47C158.62 69.5286 158.723 68.5327 159.149 67.66Z" fill="#F48C7F"/>
        <path d="M177.63 90.27C178.003 89.7348 178.501 89.2988 179.08 89C179.66 88.7024 180.312 88.5775 180.96 88.64C184.8 88.93 192.63 89.51 193.35 90.24C194.35 91.24 197.27 97.63 194.51 106.69C191.75 115.75 190.17 114.69 187.85 114.69C185.53 114.69 174.73 109.54 174.73 109.54L177.63 90.27Z" fill="#355389"/>
        <path d="M170.999 82.66L166.509 88.53L172.089 96.86C172.089 96.86 171.579 103.09 170.789 104.98C169.999 106.87 165.279 114.83 165.279 114.83C165.279 114.83 176.659 121.83 187.739 120.77C187.739 120.77 190.859 104.61 191.739 103.09C192.619 101.57 201.089 93.89 201.089 93.89L196.999 87.22L189.899 91.14C189.899 91.14 176.899 89.03 176.269 88.38C175.669 87.88 170.999 82.66 170.999 82.66Z" fill="#F29100"/>
        <path d="M185.67 70.56C185.67 70.56 181.25 68.24 179.8 72.08C179.8 72.08 175.89 71.64 176.54 75.77C176.54 75.77 172.54 77.77 175.09 82.87C175.09 82.87 174.01 87.73 179.66 88.02C180.006 88.5794 180.526 89.0097 181.141 89.2446C181.755 89.4795 182.429 89.506 183.06 89.32C185.67 88.89 186.33 88.24 186.33 88.24C186.33 88.24 190.89 89.61 192.27 85.41C192.27 85.41 195.38 84.69 193.27 80.63C193.27 80.63 196.03 75.41 191.17 73.82C191.18 73.89 190.67 68.53 185.67 70.56Z" fill="#F29100"/>
        <path d="M187.481 81.93C187.121 82.93 187.411 83.93 188.061 84.18C188.711 84.43 189.591 83.82 189.951 82.8C190.311 81.78 190.021 80.8 189.371 80.56C188.721 80.32 187.851 80.92 187.481 81.93Z" fill="#F7A491"/>
        <path d="M175.599 79.47C175.529 80.56 176.109 81.47 176.829 81.47C177.249 81.4009 177.626 81.1737 177.882 80.8351C178.139 80.4965 178.256 80.0724 178.209 79.65C178.279 78.65 177.699 77.65 176.979 77.65C176.259 77.65 175.669 78.38 175.599 79.47Z" fill="#F7A491"/>
        <path d="M180.67 86.43C180.67 86.5 180.09 88.96 179.8 90.27C179.752 90.5125 179.78 90.7638 179.88 90.99C179.95 91.21 180.17 91.35 180.38 91.5C181.61 92.08 183.93 92.8 185.6 91.35C185.67 91.28 185.75 91.21 185.75 91.14C185.805 91.0538 185.829 90.9518 185.82 90.85L185.6 85L180.67 86.43Z" fill="#F7A491"/>
        <path d="M180.311 87.8C181.061 88.1455 181.888 88.2937 182.712 88.2307C183.536 88.1677 184.331 87.8956 185.021 87.44L185.671 87.01L185.601 84.9L180.671 86.43C180.577 86.8933 180.457 87.3507 180.311 87.8Z" fill="#F48C7F"/>
        <path d="M184.151 73C185.595 73.412 186.819 74.3744 187.561 75.68C188.861 77.78 189.511 83.87 185.021 86.55C180.531 89.23 177.191 85.1 177.271 81.19C177.351 77.28 179.081 72.22 184.151 73Z" fill="#F7A491"/>
        <path d="M176.759 88.74C174.659 90.34 172.479 98.38 171.689 100.56L171.029 104.47L179.509 89.47C179.439 89.4 177.189 88.38 176.759 88.74Z" fill="#0069B3"/>
        <path d="M187.049 90.77C187.049 90.77 186.759 100.77 187.559 104.18C187.827 106.012 188.786 107.672 190.239 108.82L191.179 104.82C191.179 104.82 190.239 95.98 189.879 91.27C189.879 90.56 187.049 90.77 187.049 90.77Z" fill="#0069B3"/>
        <path d="M176.4 162.23C175.46 162.08 177.12 158.75 177.63 158.23L184.73 159.17C186.202 159.833 187.609 160.633 188.93 161.56C189.15 161.78 189.15 162.07 188.35 162.22C184.372 162.509 180.379 162.512 176.4 162.23Z" fill="#13375B"/>
        <path d="M141.539 144.4C142.409 144.91 143.86 141.65 144 140.92L138.28 136.43C138.28 136.43 133.86 135.12 132.99 136.07C132.12 136.79 139.659 143.24 141.539 144.4Z" fill="#13375B"/>
        <path d="M188.149 83V82.8C188.149 82.67 188.149 82.48 188.149 82.26C188.17 82.0079 188.206 81.7574 188.259 81.51C188.283 81.3702 188.32 81.233 188.369 81.1C188.392 81.035 188.418 80.9715 188.449 80.91L188.509 80.83C188.584 80.7176 188.687 80.6277 188.809 80.57C188.868 80.5556 188.93 80.5556 188.989 80.57C189.045 80.5597 189.103 80.5597 189.159 80.57L189.319 80.66H189.389C189.464 80.7373 189.528 80.8249 189.579 80.92C189.606 80.9612 189.63 81.0047 189.649 81.05L189.709 81.17C189.709 81.25 189.759 81.32 189.779 81.38C189.777 81.43 189.777 81.48 189.779 81.53L190.069 81.34L190.019 81.2L189.919 80.97L189.839 80.84C189.817 80.7859 189.786 80.7353 189.749 80.69C189.674 80.584 189.586 80.4867 189.489 80.4H189.439L189.349 80.34H189.299H189.189C189.106 80.3295 189.022 80.3295 188.939 80.34C188.856 80.3494 188.775 80.3731 188.699 80.41C188.628 80.4486 188.563 80.4994 188.509 80.56C188.454 80.6165 188.407 80.6805 188.369 80.75L188.309 80.85C188.278 80.9183 188.251 80.9884 188.229 81.06C188.229 81.21 188.159 81.35 188.129 81.49C188.099 81.63 188.069 82.03 188.059 82.25C188.049 82.47 188.059 82.66 188.059 82.79C188.064 82.8399 188.064 82.8901 188.059 82.94L188.149 83Z" fill="#8CB9FF"/>
        <path d="M188.511 80.66C188.548 80.5905 188.595 80.5265 188.651 80.47C188.705 80.4094 188.769 80.3586 188.841 80.32C188.916 80.283 188.997 80.2594 189.081 80.25C189.164 80.2396 189.248 80.2396 189.331 80.25H189.441H189.491L189.581 80.31H189.631C189.728 80.3967 189.815 80.494 189.891 80.6C189.928 80.6453 189.958 80.6959 189.981 80.75L190.061 80.88L190.161 81.11L190.211 81.25V81.18C190.186 81.1029 190.153 81.029 190.111 80.96C190.092 80.9114 190.068 80.8646 190.041 80.82L190.001 80.9C189.924 80.7914 189.834 80.6939 189.731 80.61L189.631 80.55H189.531H189.421C189.342 80.5344 189.26 80.5344 189.181 80.55C189.098 80.5545 189.016 80.5748 188.941 80.61C188.869 80.6486 188.805 80.6994 188.751 80.76C188.692 80.8163 188.642 80.8802 188.601 80.95C188.58 80.9812 188.563 81.0148 188.551 81.05C188.546 81.0698 188.546 81.0902 188.551 81.11C188.515 81.1764 188.489 81.2469 188.471 81.32C188.423 81.4563 188.39 81.597 188.371 81.74C188.371 82.02 188.311 82.28 188.301 82.5C188.306 82.5465 188.306 82.5935 188.301 82.64C188.306 82.5568 188.306 82.4733 188.301 82.39C188.301 82.17 188.301 81.91 188.371 81.63C188.441 81.35 188.431 81.35 188.471 81.2C188.493 81.1284 188.52 81.0583 188.551 80.99L188.511 80.66Z" fill="#BFDDFE"/>
        <path d="M187.93 82.23C187.917 82.2856 187.925 82.344 187.953 82.3939C187.981 82.4438 188.026 82.4816 188.08 82.5H188.37C188.47 82.5 188.57 82.42 188.59 82.28V82C188.59 81.86 188.59 81.74 188.44 81.72H188.16C188.05 81.64 187.95 81.72 187.93 81.93V82.23Z" fill="#BFDDFE"/>
        <path d="M188.22 81.81H188.51C188.564 81.8284 188.609 81.8662 188.637 81.9161C188.665 81.966 188.673 82.0244 188.66 82.08V82.37C188.66 82.37 188.66 82.37 188.66 82.43C188.638 82.4597 188.61 82.4835 188.576 82.4992C188.543 82.5149 188.507 82.5221 188.47 82.52H188.19C188.09 82.52 188.02 82.38 188.04 82.25L188 82C188.001 81.9728 188.008 81.9462 188.02 81.9217C188.032 81.8972 188.048 81.8754 188.069 81.8576C188.09 81.8398 188.114 81.8264 188.14 81.8183C188.166 81.8101 188.193 81.8073 188.22 81.81Z" fill="#73AAFF"/>
        <path d="M188.71 82.9993C188.845 82.7334 188.735 82.4064 188.464 82.2689C188.193 82.1313 187.864 82.2354 187.729 82.5013C187.594 82.7672 187.704 83.0943 187.975 83.2318C188.246 83.3694 188.575 83.2653 188.71 82.9993Z" fill="#73AAFF"/>
        <path d="M188.704 82.9812C188.84 82.7153 188.749 82.3983 188.503 82.2733C188.257 82.1483 187.948 82.2625 187.813 82.5284C187.678 82.7943 187.768 83.1113 188.014 83.2363C188.26 83.3613 188.569 83.2471 188.704 82.9812Z" fill="white"/>
        <path d="M188.93 84.46C188.983 84.485 189.041 84.4979 189.1 84.4979C189.159 84.4979 189.217 84.485 189.27 84.46C189.813 84.2427 190.258 83.8335 190.52 83.31C190.64 82.9708 190.683 82.6094 190.647 82.2515C190.61 81.8936 190.495 81.5482 190.31 81.24C190.22 81.03 189.86 81.17 189.94 81.38C190.078 81.9687 189.985 82.5879 189.68 83.11C189.608 83.2564 189.506 83.3857 189.38 83.4892C189.254 83.5927 189.108 83.668 188.95 83.71C188.853 83.7538 188.777 83.8336 188.738 83.9325C188.699 84.0314 188.699 84.1417 188.74 84.24C188.773 84.3351 188.841 84.4139 188.93 84.46Z" fill="white"/>
        <path d="M189.1 84.36C189.64 84.1372 190.083 83.7296 190.35 83.21C190.465 82.8717 190.506 82.5126 190.47 82.1571C190.433 81.8017 190.321 81.4582 190.14 81.15C190.176 81.1453 190.212 81.1526 190.243 81.1707C190.273 81.1888 190.297 81.2167 190.31 81.25C190.496 81.5582 190.611 81.9036 190.647 82.2615C190.683 82.6194 190.64 82.9808 190.52 83.32C190.259 83.8435 189.814 84.2527 189.27 84.47C189.217 84.495 189.159 84.5079 189.1 84.5079C189.042 84.5079 188.983 84.495 188.93 84.47L188.82 84.39C188.914 84.4102 189.013 84.3997 189.1 84.36Z" fill="#73AAFF"/>
    </g>
    <defs>
        <clipPath id="clip0_126_3219">
            <rect width="219.21" height="162.45" fill="white"/>
        </clipPath>
    </defs>
</svg>
